<svg xmlns="http://www.w3.org/2000/svg" width="600" height="600" fill="none" viewBox="0 0 600 600">
  <g clip-path="url(#a)">
    <mask id="b" width="600" height="600" x="0" y="0" maskUnits="userSpaceOnUse" style="mask-type:alpha">
      <path fill="#C4C4C4" d="M300 600c165.685 0 300-134.315 300-300S465.685 0 300 0 0 134.315 0 300s134.315 300 300 300Z"/>
    </mask>
    <g mask="url(#b)">
      <path fill="#fff" d="M300 600c165.685 0 300-134.315 300-300S465.685 0 300 0 0 134.315 0 300s134.315 300 300 300Z"/>
      <path fill="#000" d="M300.5 592C462.043 592 593 461.043 593 299.5S462.043 7 300.5 7 8 137.957 8 299.5 138.957 592 300.5 592Z"/>
      <path fill="#fff" d="M245 513.174h8.543v2.785h-5.559v5.685h1.171c1.033 0 1.892.135 2.574.406.703.27 1.268.658 1.697 1.16.449.542.732 1.131.849 1.769.117.619.185 1.306.205 2.06v1.16c0 1.818-.448 3.21-1.346 4.177-.878.966-2.292 1.45-4.243 1.45H245v-20.652Zm2.984 11.08v6.613h1.112c.605 0 1.073-.087 1.405-.261.351-.174.614-.415.79-.725.175-.31.283-.676.321-1.102.039-.426.059-.89.059-1.392 0-.522-.039-.977-.117-1.364-.059-.406-.185-.734-.38-.986a1.907 1.907 0 0 0-.761-.58c-.313-.136-.741-.203-1.288-.203h-1.141Zm14.873 2.35-1.463-7.484h-.058l-1.463 7.484h2.984Zm-7.373 7.222 4.652-20.652h2.487l4.652 20.652h-2.984l-.878-4.438h-4.067l-.878 4.438h-2.984Zm13.261 0v-20.652h4.476c.819 0 1.54.107 2.165.319.624.212 1.189.589 1.697 1.131.507.542.858 1.18 1.054 1.915.194.716.292 1.691.292 2.929 0 .928-.058 1.712-.175 2.35a4.714 4.714 0 0 1-.673 1.798 4.46 4.46 0 0 1-1.639 1.595c-.683.368-1.58.551-2.692.551h-1.521v8.064h-2.984Zm2.984-17.867v7.019h1.434c.603 0 1.072-.087 1.404-.261.331-.174.575-.415.732-.725.155-.29.243-.648.263-1.073.038-.426.058-.9.058-1.422 0-.484-.01-.937-.029-1.363a3.02 3.02 0 0 0-.263-1.16 1.666 1.666 0 0 0-.702-.754c-.313-.174-.761-.261-1.346-.261h-1.551Zm8.93-2.785h8.544v2.785h-5.559v5.685h1.17c1.034 0 1.891.135 2.575.406.702.27 1.267.658 1.697 1.16.448.542.731 1.131.848 1.769.117.619.185 1.306.205 2.06v1.16c0 1.818-.449 3.21-1.346 4.177-.877.966-2.292 1.45-4.242 1.45h-3.892v-20.652Zm2.985 11.08v6.613h1.112c.603 0 1.072-.087 1.404-.261.351-.174.614-.415.79-.725.176-.31.282-.676.322-1.102.038-.426.058-.89.058-1.392 0-.522-.039-.977-.117-1.364-.058-.406-.186-.734-.38-.986a1.914 1.914 0 0 0-.761-.58c-.312-.136-.742-.203-1.287-.203h-1.141Zm8.844 9.572v-20.652h8.894v2.785h-5.91v6.062h5.15v2.784h-5.15v6.062h5.91v2.959h-8.894Zm10.83 0v-20.652h4.476c.819 0 1.54.107 2.165.319.624.212 1.189.589 1.697 1.131.507.542.858 1.18 1.053 1.915.195.716.293 1.691.293 2.929 0 .928-.058 1.712-.175 2.35a4.714 4.714 0 0 1-.673 1.798 4.46 4.46 0 0 1-1.639 1.595c-.683.368-1.58.551-2.692.551h-1.521v8.064h-2.984Zm2.984-17.867v7.019h1.434c.603 0 1.071-.087 1.404-.261.331-.174.575-.415.731-.725.156-.29.244-.648.264-1.073.038-.426.058-.9.058-1.422 0-.484-.01-.937-.029-1.363a3.02 3.02 0 0 0-.263-1.16 1.663 1.663 0 0 0-.703-.754c-.312-.174-.76-.261-1.345-.261h-1.551Zm11.915-2.785v18.041h3.013v-18.041h2.985v18.041h3.013v-18.041h2.985v20.652h-14.981v-20.652h2.985Zm14.64 4.873c0-.832.146-1.566.439-2.204a4.66 4.66 0 0 1 1.17-1.596 4.983 4.983 0 0 1 1.58-.928 5.458 5.458 0 0 1 1.814-.319c.605 0 1.199.107 1.785.319a5.248 5.248 0 0 1 1.638.928c.468.426.849.957 1.141 1.596.293.638.439 1.372.439 2.204v10.906c0 .87-.146 1.615-.439 2.233a4.604 4.604 0 0 1-1.141 1.538 4.956 4.956 0 0 1-1.638.957 5.208 5.208 0 0 1-1.785.319 5.458 5.458 0 0 1-1.814-.319 4.714 4.714 0 0 1-1.58-.957 4.432 4.432 0 0 1-1.17-1.538c-.293-.618-.439-1.363-.439-2.233v-10.906Zm2.984 10.906c0 .716.195 1.247.585 1.595.41.329.889.493 1.434.493.546 0 1.015-.164 1.404-.493.41-.348.615-.879.615-1.595v-10.906c0-.716-.205-1.238-.615-1.566a2.035 2.035 0 0 0-1.404-.522 2.15 2.15 0 0 0-1.434.522c-.39.328-.585.85-.585 1.566v10.906Zm9.65 4.873v-20.652H355v20.652h-2.984v-18.041h-3.541v18.041h-2.984ZM162 502.531h23.24c8.71 0 11.996-4.101 11.996-9.258v-.429c0-5.157-3.286-9.219-11.996-9.219h-12.551v-3.164h22.409v-6.992H162v29.062Zm10.689-6.992v-4.922h9.977c2.257 0 3.405.899 3.405 2.305v.195c0 1.524-1.188 2.422-3.405 2.422h-9.977Zm50.708-4.531h-9.027l4.474-9.922 4.553 9.922Zm5.265 11.523h11.323l-13.936-29.062h-13.975l-13.62 29.062h10.65l2.138-4.726h15.243l2.177 4.726Zm35.989-8.672c10.848 0 13.818-4.297 13.818-10.078v-.508c0-5.742-2.851-9.804-13.818-9.804h-21.497v29.062h10.689v-8.672h10.808Zm-10.808-12.968h9.819c2.89 0 3.721 1.289 3.721 2.695v.078c0 1.524-.831 2.773-3.721 2.773h-9.819v-5.546Zm48.077 10.117h-9.026l4.473-9.922 4.553 9.922Zm5.266 11.523h11.323l-13.936-29.062h-13.976l-13.619 29.062h10.65l2.138-4.726h15.242l2.178 4.726Zm14.491 0h23.24c8.71 0 11.996-4.101 11.996-9.258v-.429c0-5.157-3.286-9.219-11.996-9.219h-12.55v-3.164h22.408v-6.992h-33.098v29.062Zm10.69-6.992v-4.922h9.977c2.256 0 3.405.899 3.405 2.305v.195c0 1.524-1.188 2.422-3.405 2.422h-9.977Zm50.707-4.531h-9.027l4.474-9.922 4.553 9.922Zm5.266 11.523h11.323l-13.936-29.062h-13.976l-13.619 29.062h10.65l2.138-4.726h15.242l2.178 4.726Zm32.409.469c15.519 0 18.251-7.5 18.251-12.031v-.313h-11.046c-.119.625-.752 4.336-8.037 4.336-6.809 0-8.234-4.101-8.234-6.914v-.469c0-2.773 1.346-6.718 8.195-6.718 7.324 0 7.957 3.671 8.076 4.375H439v-.313c0-4.883-2.811-11.953-18.251-11.953h-1.782c-15.361 0-18.449 8.594-18.449 14.336v1.172c0 5.703 3.167 14.492 18.449 14.492h1.782ZM256.176 332.026V340H261v-13.392h-3.672c-.612 1.656-1.584 2.25-4.446 2.25v3.168h3.294Zm15.694-5.652c-7.02 0-8.316 4.032-8.316 6.624v.54c0 2.52 1.296 6.696 8.316 6.696h.792c7.056 0 8.298-4.176 8.298-6.696v-.54c0-2.574-1.242-6.624-8.298-6.624h-.792Zm4.014 6.948c0 1.152-.504 3.204-3.618 3.204s-3.636-2.052-3.636-3.204v-.198c0-1.098.432-3.114 3.618-3.114 3.168 0 3.636 2.016 3.636 3.114v.198Zm15.34-6.948c-7.02 0-8.316 4.032-8.316 6.624v.54c0 2.52 1.296 6.696 8.316 6.696h.792c7.056 0 8.298-4.176 8.298-6.696v-.54c0-2.574-1.242-6.624-8.298-6.624h-.792Zm4.014 6.948c0 1.152-.504 3.204-3.618 3.204s-3.636-2.052-3.636-3.204v-.198c0-1.098.432-3.114 3.618-3.114 3.168 0 3.636 2.016 3.636 3.114v.198ZM308.233 340h4.68v-8.37l3.942 8.37h3.06l3.978-8.37V340h4.752v-13.392h-6.408l-3.69 7.65-3.618-7.65h-6.696V340Zm33.925 0h4.86v-13.392h-14.13c0 6.372-.054 7.704-.45 8.568-.288.63-.756 1.026-1.602 1.026h-.288V340h1.53c2.772 0 4.05-.972 4.716-2.646.522-1.35.738-3.672.738-7.362h4.626V340Zm-169.566-65.496h-7.488c-9.792 0-17.424 3.84-17.424 13.92v.384c0 10.08 7.68 14.544 17.52 14.544h7.392v4.128h12.912v-4.128h7.44c9.84 0 17.472-4.464 17.472-14.544v-.384c0-10.08-7.584-13.92-17.376-13.92h-7.536v-3.696h-12.912v3.696Zm0 9.024v10.8h-4.656c-3.984 0-6.72-1.536-6.72-5.52v-.384c0-3.408 2.736-4.896 6.72-4.896h4.656Zm12.912 0h4.656c3.984 0 6.768 1.488 6.768 4.896v.384c0 3.984-2.784 5.52-6.768 5.52h-4.656v-10.8Zm54.716 9.312h-10.944l5.424-12.192 5.52 12.192Zm6.384 14.16h13.728l-16.896-35.712h-16.944L209.98 307h12.912l2.592-5.808h18.48l2.64 5.808Zm48.337 0h12.912v-35.712h-12.912l-17.808 21.552v-21.552h-12.96V307h12.96l17.808-21.552V307Zm-8.256-38.064c8.592 0 10.608-5.616 10.608-8.64v-.096h-8.16c0 1.008-.576 2.736-2.88 2.736h-.048c-2.448 0-2.784-1.728-2.928-2.736h-8.256v.096c0 3.024 1.296 8.64 10.656 8.64h1.008ZM315.923 307h28.176c10.56 0 14.544-5.04 14.544-11.376v-.528c0-6.336-3.984-11.328-14.544-11.328h-15.216v-3.888h27.168v-8.592h-40.128V307Zm12.96-8.592v-6.048h12.096c2.736 0 4.128 1.104 4.128 2.832v.24c0 1.872-1.44 2.976-4.128 2.976h-12.096Zm35.696-27.12V307h36v-8.736h-23.088v-4.896h22.032v-8.88h-22.032v-4.56h22.752v-8.64h-35.664Zm69.283 25.056c13.152 0 16.752-5.28 16.752-12.384v-.624c0-7.056-3.456-12.048-16.752-12.048h-26.064V307h12.96v-10.656h13.104Zm-13.104-15.936h11.904c3.504 0 4.512 1.584 4.512 3.312v.096c0 1.872-1.008 3.408-4.512 3.408h-11.904v-6.816Z"/>
    </g>
    <path fill="#D32037" d="m283.277 161.383 34.255-42.371v8.766l-34.255 42.371v-8.766Zm0 17.556 34.255-42.371v8.766l-34.255 42.372v-8.767Zm0 17.556 34.255-42.371v8.767l-34.255 42.37v-8.766Zm0 17.556 34.255-42.37v8.766l-34.255 42.371v-8.767Zm0 17.556 34.255-42.37v8.766l-34.255 42.371v-8.767Z"/>
  </g>
  <defs>
    <clipPath id="a">
      <path fill="#fff" d="M0 0h600v600H0z"/>
    </clipPath>
  </defs>
</svg>
